<?xml version="1.0" standalone="no"?>
<!DOCTYPE svg PUBLIC "-//W3C//DTD SVG 20010904//EN"
 "http://www.w3.org/TR/2001/REC-SVG-20010904/DTD/svg10.dtd">
<svg version="1.0" xmlns="http://www.w3.org/2000/svg"
 width="599.000000pt" height="599.000000pt" viewBox="0 0 599.000000 599.000000"
 preserveAspectRatio="xMidYMid meet">
<metadata>
Created by potrace 1.11, written by Peter Selinger 2001-2013
</metadata>
<g transform="translate(0.000000,599.000000) scale(0.100000,-0.100000)"
fill="#000000" stroke="none">
<path d="M3380 5967 c-30 -10 -83 -25 -117 -32 -56 -12 -70 -11 -137 6 -83 21
-201 28 -286 16 -30 -5 -62 -8 -70 -8 -8 -1 -38 -7 -66 -15 -27 -7 -70 -16
-95 -18 -24 -3 -66 -12 -93 -21 -27 -8 -70 -15 -95 -15 -42 0 -103 -12 -141
-27 -8 -4 -17 -7 -20 -7 -12 -2 -98 -29 -130 -41 -19 -7 -38 -13 -43 -14 -37
-3 -117 -37 -156 -65 -58 -43 -122 -71 -181 -80 -101 -16 -95 -11 -98 -69 -2
-44 2 -57 24 -82 22 -25 56 -85 59 -105 0 -3 4 -11 8 -18 12 -18 9 -169 -3
-208 -9 -28 -19 -36 -53 -45 -65 -17 -70 -18 -123 -8 -27 5 -60 11 -74 14 -59
11 -157 49 -177 70 -13 12 -43 30 -68 40 -44 16 -49 16 -143 -5 -68 -14 -103
-28 -118 -43 -38 -39 -71 -65 -95 -72 -13 -5 -40 -18 -59 -30 -19 -11 -49 -27
-67 -34 -18 -7 -37 -19 -43 -26 -7 -8 -13 -68 -14 -142 -2 -70 -7 -144 -11
-163 -6 -32 -3 -41 34 -85 49 -59 60 -93 50 -155 -4 -25 -10 -72 -14 -105 -3
-33 -10 -78 -15 -100 -15 -64 -12 -103 12 -148 43 -82 50 -111 52 -217 2 -88
6 -112 23 -140 70 -117 72 -124 68 -212 -2 -46 -7 -123 -11 -173 -4 -49 -8
-121 -8 -158 -1 -58 2 -71 21 -85 38 -30 116 -182 127 -247 3 -22 8 -53 11
-70 43 -237 54 -300 61 -360 4 -33 11 -72 19 -95 1 -3 8 -18 15 -35 16 -38 19
-49 26 -110 3 -27 11 -57 18 -65 7 -8 21 -33 31 -55 11 -21 38 -71 60 -110 48
-84 68 -124 95 -188 21 -51 41 -77 60 -77 6 0 39 -30 73 -66 48 -51 62 -73 63
-98 1 -23 13 -43 41 -71 72 -72 119 -153 148 -256 14 -50 23 -62 76 -104 68
-53 105 -103 114 -155 4 -23 22 -50 49 -78 34 -34 46 -55 56 -100 8 -38 23
-69 45 -93 18 -20 36 -43 41 -51 5 -9 35 -30 67 -48 62 -35 77 -57 77 -116 0
-27 8 -43 33 -67 17 -18 41 -43 52 -57 11 -14 47 -45 80 -70 33 -24 78 -61 99
-81 22 -20 69 -52 105 -70 36 -19 68 -37 71 -40 17 -20 174 -91 223 -100 61
-11 146 1 197 27 27 15 80 60 80 68 0 3 16 23 35 43 19 20 35 41 35 45 0 4 5
8 10 8 6 0 28 16 48 36 38 37 154 124 166 124 22 0 72 66 112 149 26 53 57
103 68 111 42 29 76 69 71 82 -6 16 28 49 95 92 25 16 78 65 119 109 70 76 73
82 68 119 -4 33 0 44 30 81 19 23 46 52 59 63 13 12 24 26 24 33 0 6 4 11 9
11 5 0 21 16 36 36 20 26 29 51 32 87 3 42 10 58 43 94 22 23 40 46 41 50 2
23 10 72 16 103 3 19 7 40 8 45 8 62 24 91 92 172 42 48 84 92 94 97 11 5 19
20 19 33 0 25 31 92 55 121 8 9 32 37 54 62 21 25 37 53 35 63 -3 19 14 78 25
87 30 24 69 92 74 125 7 62 15 86 33 106 10 11 14 19 10 19 -13 0 22 55 64
100 59 63 64 75 75 176 3 23 19 75 36 115 52 124 56 149 29 206 -16 34 -25 72
-28 130 -4 76 -2 86 23 130 15 26 48 68 73 92 43 41 46 47 47 100 0 31 9 73
18 95 19 44 21 73 7 134 -8 33 -7 50 5 78 8 20 15 45 15 54 0 10 4 20 9 22 9
3 22 81 38 219 4 31 0 56 -11 78 -9 17 -17 53 -18 79 -2 40 4 58 32 103 19 29
34 56 33 59 -8 26 -15 118 -19 235 -2 77 -3 143 -4 147 0 4 -15 14 -34 23 -18
9 -43 25 -54 35 -12 11 -25 20 -29 20 -5 0 -15 9 -23 21 -33 46 -168 71 -243
44 -39 -13 -102 -11 -148 7 -15 5 -78 11 -141 12 -109 2 -116 3 -173 35 -33
19 -62 36 -65 40 -3 3 -14 7 -25 7 -34 2 -87 14 -105 24 -34 18 -65 100 -64
168 1 58 4 66 30 88 16 13 53 33 82 45 57 25 60 31 37 87 -14 33 -108 131
-127 132 -5 0 -8 6 -8 13 0 6 -15 26 -32 42 -17 17 -37 45 -44 63 -8 17 -18
32 -22 33 -4 0 -27 3 -52 5 -73 7 -202 34 -245 51 -22 8 -49 17 -60 19 -39 8
-170 57 -176 66 -3 5 -9 9 -13 9 -22 -3 -36 1 -48 12 -23 23 -41 23 -98 4z"/>
</g>
</svg>
